<svg width="164" height="153" viewBox="0 0 164 153" fill="none" xmlns="http://www.w3.org/2000/svg">
<path d="M0.512669 -9.15527e-05C25.2403 -9.15527e-05 45.271 20.0307 45.271 44.7583C45.271 69.4859 25.2403 89.5166 0.512669 89.5166L0.512669 -9.15527e-05Z" fill="#1EBCB4"/>
<path d="M123.854 89.6872C123.854 97.8196 122.252 105.872 119.14 113.386C116.028 120.899 111.467 127.726 105.716 133.476C99.9657 139.227 93.1389 143.788 85.6255 146.9C78.1122 150.012 70.0595 151.614 61.9271 151.614C53.7947 151.614 45.7419 150.012 38.2286 146.9C30.7153 143.788 23.8885 139.227 18.138 133.476C12.3876 127.726 7.82604 120.899 4.71392 113.386C1.60179 105.872 -7.10955e-07 97.8196 0 89.6872L61.9271 89.6872L123.854 89.6872Z" fill="#A27FFF"/>
<path d="M100.108 152.382C100.108 134.733 114.405 120.437 132.054 120.437C149.703 120.437 164 134.733 164 152.382H100.108Z" fill="#FFB201"/>
</svg>
